<svg width="30" height="30" viewBox="0 0 125 117" fill="none" xmlns="http://www.w3.org/2000/svg">
<g clip-path="url(#clip0_4314_188)">
<path d="M117.188 51.1875H70.3125V7.3125C70.3125 3.27394 66.8147 0 62.5 0C58.1853 0 54.6875 3.27394 54.6875 7.3125V51.1875H7.8125C3.4978 51.1875 0 54.4614 0 58.5C0 62.5386 3.4978 65.8125 7.8125 65.8125H54.6875V109.688C54.6875 113.726 58.1853 117 62.5 117C66.8147 117 70.3125 113.726 70.3125 109.688V65.8125H117.188C121.502 65.8125 125 62.5386 125 58.5C125 54.4614 121.502 51.1875 117.188 51.1875Z" fill="#CB92B1"/>
</g>
<defs>
<clipPath id="clip0_4314_188">
<rect width="125" height="117" fill="white"/>
</clipPath>
</defs>
</svg>
